<svg xmlns="http://www.w3.org/2000/svg" viewBox="0 0 1354.32 472.49"><title>Zasób 6</title><g id="Warstwa_2" data-name="Warstwa 2"><g id="Warstwa_1-2" data-name="Warstwa 1"><path d="M319.5,0c4.29,48.86,8.89,93.42,11.76,138.08,1,15,6,19.52,21,20.76,67.92,5.62,135.71,12.73,203.54,19.36,3.6.35,7.14,1.14,15,2.43-13.13,6.55-22.52,11.3-32,16-45.6,22.44-91.11,45.06-136.91,67.09-8.95,4.31-12.8,8.59-11.32,19.48,1.64,12.12,2.37,25.58-1.22,37-11.32,35.78-5.49,71.72-4.39,107.7.35,11.29.06,22.6.06,35.44-4.23-2.17-8.44-4.06-12.38-6.38-36.35-21.41-72.86-42.55-108.84-64.54-10.68-6.53-19.17-7.61-31.07-1.77-55.7,27.37-112,53.5-172,81.93,26.09-57.21,50.56-110.83,75.5-165.51L0,191.73c44.62-4.06,84.78-7.83,125-11.32,19.92-1.73,40.05-2.41,57-15.13,7.17-5.39,15.42-10.08,20.86-16.94C238.44,103.45,273.46,58,308.71,12.83,311.32,9.49,314.16,6.33,319.5,0ZM200.37,296.33c-37-21.24-56.37-23.46-67.61-9.28l19,16.95L81.86,451.42c53.53-26.37,103-50.49,152.11-75.18,8.69-4.36,15.44-4.61,23.81.69,15.66,9.92,32.06,18.68,48.15,27.92l2.31-2.45-12-23.21-15.75,6.56c-.41-1-.82-1.94-1.24-2.91l13.31-12.31-36.67-42-26.09,13.54-1.88-3.33,21.86-15.88c-15.46-9.19-28.08-19.41-42.48-23.93-5.72-1.79-15.39,9.12-23.34,14.1-.46.28-1.73-.73-7.72-3.47Zm14.9-143c88.07-6.45,130.79,20.12,173.33,106.21l137.93-68.8c-.36-1-.72-2-1.09-3l-204.06-19c-4.13-44.32-8.14-87.38-12.55-134.65Zm26,13.71q2.34-1.61,4.67-3.22c4.58,7.73,9.13,15.47,13.74,23.18,2,3.4,3.39,8.51,6.37,9.8,16.63,7.23,33.66,13.52,51,20.33,1.16-7.41,2.38-15.18,3.6-22.95l4.42.56c0,6.62-.15,13.24.06,19.85.14,4.67-.85,10.45,1.46,13.81,9.82,14.32,20.69,27.92,31.94,42.79,1.89-9.89,3.69-19.28,5.48-28.68l3.54.45v25.14l5.3,1c1.06-4.8,4.18-10.27,2.87-14.28-21-63.85-85.13-107.49-163.75-90.91-14,2.94-23.48,22.17-18.53,33.17l62.23-4.39ZM98,258.54l40.4-67.4L28.24,200.53C54,222,76.53,240.7,98,258.54Zm33.21-29.93c-.86-1.76-1.73-3.53-2.6-5.29,12.87-5.76,25.91-11.17,38.54-17.43,6-3,16.44-8.79,15.87-11.15-3.12-13-13.9-4.71-21.5-5.14-3.32-.18-7.4,1.85-10.11,4.11-21,17.37-36.05,39.08-41.87,65.62-1.15,5.27,7.55,13.27,12.79,19,1.45,1.59,6.85-.44,10.43-.81l-.24-3.38L115,267.09c36.59-5.62,36.59-5.62,44.18-21l-37.39,7.81q-.56-2.7-1.1-5.4c11.72-2.82,23.38-5.92,35.17-8.38,16.39-3.41,23.79-12.65,24.05-32.59ZM301.31,283.2l24.93,53.61c34.05-35.92,32.6-74.75-3.66-99.74Zm32.93,114.07-6.66-.44c-2-12.29-4-24.58-6.32-39.07L301,374.89c4.57,9.3,11.38,17.26,12,25.69,1.51,19.3,10,11.74,17.87,5.93,37.19-27.39,47.69-67.11,31.43-120.76.05,11.35,2,22.7,1.6,34a164.17,164.17,0,0,1-5.27,35.12C356,365.21,350.84,375,346.77,385L342,383.31c10.31-24.14,18.72-48.58,14.56-75.2C334.82,334,321.16,361.84,334.24,397.27ZM248.36,243,295,275.19c28.83-36,24-53.3-19.42-67.53-4.43-1.45-9.07-2.27-13.36-3.33C257.38,217.89,252.86,230.47,248.36,243Zm-3,6.3-32.49,40.27,42.47,29.82,38.58-34.89Zm8.78-45.59c-44.05-10.55-62-2.38-74.24,32,13.37.94,26.87,1.36,40.23,3,23.58,2.82,23.88,3,30.73-20C252.19,214.15,252.89,209.41,254.12,203.7Zm8.53,122.14,37.16,44.87c6.48-10.51,18.17-20.86,16.83-29.07-2.83-17.35-12.48-33.58-20.23-52.46ZM153.2,267.34c15.55,5.65,31,11.48,46.7,16.78,2.51.85,7,.45,8.55-1.23,9.4-10.35,18.2-21.23,28-32.84C193.55,235.19,171.72,240.25,153.2,267.34Zm216.5,117-39.41,34.52,42.1,23.88C371.33,419.65,370.4,399.58,369.7,384.3Z"/></g><g id="Warstwa_3" data-name="Warstwa 3"><path d="M484.85,366.74l32.73-73.65h29.15L539.33,339l33.38-45.93h29.15l-32.72,73.65H547.45l10-22.5,5.42-11.46,7.15-13.3h-.21l-34.45,47.26H518.61l7.65-47.26h-.21l-3.82,10.85-4.61,11.45-11.08,25Z"/><path d="M583.05,366.74l32.72-73.65h60l-7.67,17.19h-35.9l-4.67,10.53H658L650.38,338H620l-5.14,11.56H652.2l-7.68,17.18Z"/><path d="M727.42,367H711.87l2.26-7.27a46.06,46.06,0,0,1-11.67,6.5,40,40,0,0,1-14.48,2.5,32.81,32.81,0,0,1-11.28-1.79,18.79,18.79,0,0,1-8.06-5.42,17.37,17.37,0,0,1-3.9-9.1,31.62,31.62,0,0,1,1.13-12.63,62.38,62.38,0,0,1,3.2-8.9,71.84,71.84,0,0,1,9.79-16.11,66.71,66.71,0,0,1,13.3-12.58A60.77,60.77,0,0,1,708,294a53.55,53.55,0,0,1,17.24-2.86q13.69,0,20,7t2.74,20.3H725.07q1.47-9.3-8.25-9.31-7,0-13.05,5.78t-10.53,15.81a47.89,47.89,0,0,0-2.39,6.64c-1.1,4.1-1,7.33.31,9.72s4.2,3.58,8.7,3.58a20,20,0,0,0,8.73-2.4,18.76,18.76,0,0,0,7.36-6.09H705.31l7.14-16h33Z"/><path d="M735.45,366.74l59.12-73.65h24.55l-6.34,73.65h-24l1.48-9.72h-24l-7.11,9.72Zm61.35-51.45-19.24,26.39H792.8Z"/></g><g id="Warstwa_4" data-name="Warstwa 4"><polygon points="1046.03 384.31 1005.53 384.31 1000.56 395.48 1041.06 395.48 1046.03 384.31"/><path d="M895.48,379.31a11.7,11.7,0,0,1,.09-6H856.78a42.64,42.64,0,0,0-1.63,4.8c-.11.42-.2.83-.3,1.24Z"/><polygon points="1053.22 368.14 1012.72 368.14 1007.75 379.31 1048.26 379.31 1053.22 368.14"/><path d="M1320.44,390.26q.84-1.89,1.83-4.29l.75-1.66h-38.88c-.63,1.61-1.41,3.42-2.36,5.43s-1.67,3.93-2.4,5.73h38.77C1318.81,393.93,1319.57,392.2,1320.44,390.26Z"/><polygon points="1250.22 384.31 1209.75 384.31 1204.79 395.48 1245.27 395.48 1250.22 384.31"/><path d="M926,369.32q4.54,2.24,3.4,6.52l-.14.51a2,2,0,0,0-.36.69,10.08,10.08,0,0,1-1.35,2.27h38.62a68.55,68.55,0,0,0,3.71-7.25c.63-1.34,1.16-2.65,1.62-3.92H923.29C924.31,368.55,925.2,368.94,926,369.32Z"/><polygon points="1193.09 395.48 1194.05 384.31 1083.68 384.31 1074.72 395.48 1113.23 395.48 1113.53 395.06 1153.87 395.06 1153.8 395.48 1193.09 395.48"/><polygon points="1137.12 363.14 1164.9 325.04 1159.13 363.14 1195.87 363.14 1202.35 287.79 1161.15 287.79 1100.67 363.14 1137.12 363.14"/><path d="M962.89,384.31H920a35.34,35.34,0,0,1-11.88,1.83,17,17,0,0,1-8.37-1.83H854.05a27,27,0,0,0,.52,8.09,23.67,23.67,0,0,0,.91,3.07h97A62.67,62.67,0,0,0,962.89,384.31Z"/><path d="M1212,379.31h40.47l4.88-11h12.36q10.82,0,14.22,2.66,3.18,2.49,1.85,8.36h39.33c.79-2.08,1.41-4,1.88-5.7a35.6,35.6,0,0,0,1-5.47H1216.93Z"/><polygon points="1153.04 400.48 1151.38 411.37 1191.72 411.37 1192.65 400.48 1153.04 400.48"/><polygon points="1158.19 369.32 1132.62 369.32 1133.47 368.14 1096.66 368.14 1087.7 379.31 1194.47 379.31 1195.43 368.14 1158.37 368.14 1158.19 369.32"/><polygon points="1202.57 400.48 1197.72 411.37 1238.23 411.37 1243.06 400.48 1202.57 400.48"/><path d="M1347.3,294.14q-9.71-6.34-36.31-6.35h-58.36l-33.48,75.35h108.72a7.3,7.3,0,0,0-1.15-2.75q-2.76-3.76-10.77-7.21a46.27,46.27,0,0,0,20.37-11,61,61,0,0,0,17-27.8Q1357,300.5,1347.3,294.14Zm-36.5,32.78c0,.12-.19.52-.49,1.21a8.54,8.54,0,0,0-.54,1.37,16.83,16.83,0,0,1-8.66,8.92q-6,2.76-15.75,2.75h-16l10.86-24.54h18.88c4.47,0,7.75.85,9.87,2.57S1311.72,323.49,1310.8,326.92Z"/><polygon points="1070.71 400.48 1061.96 411.37 1101.61 411.37 1109.57 400.48 1070.71 400.48"/><path d="M1315,403.47a31.76,31.76,0,0,1,1.06-3h-38.63q-1.55,4.23-2.42,7.46a20.48,20.48,0,0,0-.43,2.24l-.32,1.2h41l1.7-3.78Q1313.9,407.59,1315,403.47Z"/><polygon points="998.33 400.48 993.49 411.37 1033.99 411.37 1038.84 400.48 998.33 400.48"/><path d="M885.83,354.21a40.34,40.34,0,0,0,10.6,5.58q4.43,1.54,10.87,3.35h65.54a20.05,20.05,0,0,0-.58-10.9,19.52,19.52,0,0,0-7-9.1,42.2,42.2,0,0,0-10.46-5.49q-5.56-2-14.49-4.55-10.71-2.91-15.33-5.23t-3.46-6.61l.35-.69c0-.11.08-.28.14-.51q3.09-7,16-7c4.23,0,7.41.75,9.53,2.23q3.6,2.58,2,8.41H988a45,45,0,0,0,1.68-15.87,23.13,23.13,0,0,0-4.75-12.36q-4.1-5.24-12.17-8.07t-20.27-2.83q-24,0-43.33,10.21T881.48,324a45.59,45.59,0,0,0-2.57,7q-2.22,8.25-.13,13.91A19.66,19.66,0,0,0,885.83,354.21Z"/><polygon points="1014.94 363.14 1055.45 363.14 1074.54 320.23 1110.93 320.23 1125.29 287.79 1012.01 287.79 997.65 320.23 1034.04 320.23 1014.94 363.14"/><path d="M858.05,400.47a25.47,25.47,0,0,0,2.86,3.52,32.67,32.67,0,0,0,13,7.81,59.26,59.26,0,0,0,19.32,2.83q26.25,0,46.83-10.81c2-1,3.87-2.16,5.7-3.35Z"/></g></g></svg>