<svg width="110" height="17" viewBox="0 0 110 17" fill="none" xmlns="http://www.w3.org/2000/svg">
<g clip-path="url(#clip0_18:13)">
<path d="M0 10.7422L4.13953 1.1185H7.82868L6.89248 7.12011L11.1155 1.1185H14.8021L10.6626 10.7422H7.91977L9.18491 7.8022L9.86808 6.30474L10.7765 4.57338H10.7537L6.39275 10.7422H4.26984L5.23767 4.57338H5.21237L4.72909 5.98329L4.14586 7.48076L2.74282 10.7475L0 10.7422Z" fill="white"/>
<path d="M12.4224 10.7423L16.5632 1.1185H24.1541L23.1837 3.36469H18.6456L18.0561 4.74064H21.8996L20.9419 6.98683H17.0984L16.4468 8.49344H21.1696L20.1992 10.7396L12.4224 10.7423Z" fill="white"/>
<path d="M30.6885 10.7684H28.7187L29.0033 9.81975C28.5542 10.1754 28.0573 10.4616 27.5282 10.6691C26.9423 10.8939 26.3212 11.0046 25.6962 10.9958C25.211 11.0041 24.7281 10.9249 24.2692 10.7619C23.8749 10.6225 23.5232 10.3782 23.2495 10.0536C22.9764 9.71522 22.8045 9.30208 22.7548 8.86456C22.6952 8.30959 22.7443 7.74791 22.899 7.21291C23.0047 6.81548 23.1401 6.4271 23.3039 6.05126C23.6253 5.2961 24.0422 4.58825 24.5437 3.94619C25.029 3.32085 25.5952 2.76731 26.2263 2.30107C26.8404 1.84763 27.5156 1.48971 28.2303 1.23873C28.932 0.991027 29.6686 0.864756 30.4101 0.865021C31.5665 0.865021 32.4099 1.16991 32.9404 1.7797C33.4709 2.38949 33.5869 3.27412 33.2883 4.43358H30.3899C30.5139 3.62169 30.1664 3.21619 29.3474 3.21706C28.757 3.21706 28.2063 3.46881 27.6952 3.97232C27.184 4.47583 26.7404 5.16402 26.3642 6.03689C26.2427 6.31854 26.1413 6.60896 26.0606 6.90583C25.9231 7.43983 25.9362 7.8632 26.0998 8.17593C26.2634 8.48867 26.6303 8.6446 27.2005 8.64373C27.587 8.62777 27.9649 8.52048 28.305 8.33012C28.6757 8.15141 28.9959 7.87741 29.2348 7.53435H27.8913L28.7946 5.44365H32.9695L30.6885 10.7684Z" fill="white"/>
<path d="M31.7044 10.7423L39.1826 1.1185H42.2886L41.4877 10.7423H38.4514L38.6386 9.47215H35.6023L34.704 10.7423H31.7044ZM39.4724 4.01935L37.0319 7.46769H38.9663L39.4724 4.01935Z" fill="white"/>
<path d="M70.997 13.0381H65.8719L65.2432 14.4964H70.3682L70.997 13.0381Z" fill="white"/>
<path d="M51.9491 12.3848C51.8877 12.1268 51.8916 11.8568 51.9605 11.6008H47.0543C46.973 11.8057 46.9041 12.0156 46.8481 12.2293C46.8329 12.2842 46.8215 12.3377 46.8101 12.3913L51.9491 12.3848Z" fill="white"/>
<path d="M71.9067 10.9252H66.7829L66.1541 12.3848H71.2779L71.9067 10.9252Z" fill="white"/>
<path d="M105.712 13.8156C105.784 13.651 105.862 13.4637 105.945 13.2537C105.978 13.1805 106.008 13.1087 106.039 13.0381H101.121C101.042 13.2481 100.942 13.4846 100.823 13.7476C100.703 14.0107 100.601 14.2603 100.518 14.4964H105.423C105.513 14.2951 105.604 14.0691 105.712 13.8156Z" fill="white"/>
<path d="M96.8299 13.0381H91.7099L91.0811 14.4964H96.2037L96.8299 13.0381Z" fill="white"/>
<path d="M55.8078 11.0794C56.1924 11.2728 56.3358 11.5568 56.2379 11.9314L56.2202 11.998C56.1999 12.0248 56.1849 12.0554 56.1759 12.0882C56.1314 12.1941 56.074 12.2938 56.0052 12.3848H60.8911C61.0652 12.0789 61.2215 11.7625 61.3592 11.4375C61.4389 11.2611 61.506 11.0912 61.5629 10.9252H55.4675C55.5965 10.9762 55.7104 11.0298 55.8078 11.0794Z" fill="white"/>
<path d="M89.6009 14.4964L89.7223 13.0381H75.7603L74.6267 14.4964H79.4988L79.5367 14.4428H84.639L84.6314 14.4964H89.6009Z" fill="white"/>
<path d="M82.5212 10.2719L86.0357 5.2934L85.3045 10.2719H89.9526L90.7724 0.425995H85.5613L77.9097 10.2719H82.5212Z" fill="white"/>
<path d="M60.4736 13.0381H55.0474C54.5633 13.2058 54.055 13.2867 53.5445 13.2772C53.1771 13.2924 52.8121 13.2101 52.4843 13.0381H46.7089C46.6787 13.3919 46.7008 13.7484 46.7747 14.0952C46.8037 14.2316 46.8421 14.3657 46.8898 14.4964H59.1617C59.6548 14.0672 60.0954 13.5775 60.4736 13.0381Z" fill="white"/>
<path d="M91.9907 12.3848H97.1107L97.7281 10.9474H99.2918C100.204 10.9474 100.803 11.0633 101.091 11.295C101.359 11.5119 101.435 11.8765 101.324 12.3874H106.301C106.399 12.1156 106.479 11.8647 106.537 11.6426C106.6 11.4083 106.645 11.1693 106.671 10.9278H92.6182L91.9907 12.3848Z" fill="white"/>
<path d="M84.5353 15.1497L84.3253 16.574H89.4275L89.5465 15.1497H84.5353Z" fill="white"/>
<path d="M85.1868 11.0794H81.9506L82.0594 10.9252H77.4024L76.2676 12.3848H89.7767L89.8982 10.9252H85.2083L85.1868 11.0794Z" fill="white"/>
<path d="M90.8003 15.1497L90.1879 16.574H95.313L95.9228 15.1497H90.8003Z" fill="white"/>
<path d="M109.112 1.25574C108.292 0.703448 106.761 0.426866 104.518 0.425995H97.1348L92.8991 10.2719H106.651C106.627 10.1432 106.577 10.021 106.506 9.91254C106.272 9.58413 105.818 9.27009 105.143 8.97042C106.106 8.72459 106.992 8.22998 107.719 7.53306C108.461 6.82702 109.055 5.97255 109.467 5.02161C109.628 4.65858 109.762 4.28333 109.867 3.89917C110.183 2.69353 109.931 1.81239 109.112 1.25574ZM104.5 5.53906C104.5 5.55474 104.475 5.60701 104.437 5.69586C104.41 5.75406 104.388 5.81435 104.37 5.87619C104.162 6.39467 103.77 6.81156 103.275 7.04175C102.768 7.28044 102.104 7.40022 101.281 7.40109H99.2564L100.63 4.19448H103.019C103.583 4.19448 103.999 4.30642 104.268 4.5303C104.536 4.75418 104.613 5.09043 104.5 5.53906Z" fill="white"/>
<path d="M74.1181 15.1497L73.0124 16.574H78.0287L79.0357 15.1497H74.1181Z" fill="white"/>
<path d="M105.025 15.5417C105.047 15.4594 105.093 15.3287 105.16 15.1497H100.274C100.147 15.5182 100.04 15.8436 99.9674 16.1245C99.9436 16.2204 99.9254 16.3177 99.913 16.4159C99.8941 16.4917 99.8801 16.5466 99.8726 16.574H105.06L105.275 16.0801C105.016 16.0801 104.933 15.9006 105.025 15.5417Z" fill="white"/>
<path d="M64.9623 15.1497L64.3488 16.574H69.4738L70.0862 15.1497H64.9623Z" fill="white"/>
<path d="M50.7321 9.105C51.1424 9.41488 51.5947 9.66057 52.0744 9.83413C52.4463 9.96916 52.9047 10.1151 53.4496 10.2719H61.7388C61.8436 9.79935 61.8182 9.30595 61.6654 8.84758C61.4927 8.36825 61.1841 7.95385 60.7798 7.6585C60.3751 7.35681 59.9313 7.11533 59.4615 6.94113C58.9909 6.7669 58.3799 6.56872 57.6284 6.34658C56.7242 6.09309 56.0777 5.86529 55.6889 5.66319C55.3001 5.46108 55.1537 5.17318 55.2499 4.79947L55.2866 4.70408C55.2866 4.6897 55.2954 4.66749 55.3043 4.63744C55.5632 4.02765 56.238 3.72276 57.3285 3.72276C57.8637 3.72276 58.266 3.82076 58.5329 4.01415C58.8366 4.2389 58.9209 4.60521 58.786 5.11307H63.6504C63.8391 4.44019 63.9111 3.73813 63.863 3.03936C63.8189 2.4519 63.6096 1.89055 63.2608 1.42429C62.9209 0.968695 62.4085 0.617196 61.7236 0.369797C61.0388 0.122398 60.1844 -0.00086654 59.1604 4.58487e-06C57.1362 4.58487e-06 55.3089 0.444714 53.6786 1.33413C52.0482 2.22355 50.8814 3.49844 50.1779 5.1588C50.0461 5.45425 49.9374 5.76012 49.8528 6.07349C49.6664 6.79129 49.6613 7.39672 49.8376 7.88978C50.0093 8.3793 50.3213 8.80319 50.7321 9.105Z" fill="white"/>
<path d="M67.0637 10.2719H72.1888L74.6039 4.66489H79.2078L81.0232 0.425995H66.6918L64.8763 4.66489H69.4789L67.0637 10.2719Z" fill="white"/>
<path d="M47.215 15.1497C47.3216 15.3138 47.4423 15.4678 47.5755 15.6097C48.0391 16.0778 48.6023 16.4273 49.2202 16.6302C50.0096 16.8921 50.8355 17.017 51.6645 17C53.8793 17 55.8546 16.5287 57.5904 15.5862C57.8434 15.4555 58.08 15.3039 58.3102 15.1497H47.215Z" fill="white"/>
</g>
<defs>
<clipPath id="clip0_18:13">
<rect width="110" height="17" fill="white"/>
</clipPath>
</defs>
</svg>
